<svg width="40" height="41" fill="none" xmlns="http://www.w3.org/2000/svg"><g clip-path="url(#clip0)"><path d="M17.39 14.78v2.749h-2.016v3.36h2.016v9.988h4.144V20.89h2.78s.262-1.611.388-3.374H21.55V15.22c0-.345.452-.807.9-.807h2.256v-3.5h-3.07c-4.348 0-4.246 3.364-4.246 3.868z" fill="#fff"/><path d="M39 20.895c0 10.472-8.505 18.965-19 18.965S1 31.367 1 20.895C1 10.422 9.505 1.93 20 1.93s19 8.492 19 18.965z" stroke="#fff" stroke-width="2"/></g><defs><clipPath id="clip0"><path fill="#fff" transform="translate(0 .93)" d="M0 0h40v39.93H0z"/></clipPath></defs></svg>