<svg width="30" height="30" fill="none" xmlns="http://www.w3.org/2000/svg"><circle cx="15" cy="15" r="14" stroke="#120D31" stroke-width="2"/><path d="M19.004 11.896a.9.9 0 100-1.8.9.9 0 000 1.8zM15 11.149a3.852 3.852 0 100 7.704 3.852 3.852 0 000-7.704zm0 6.35a2.5 2.5 0 110-5 2.5 2.5 0 010 5z" fill="#120D31"/><path d="M15 8.851c2.003 0 2.24.008 3.03.044a4.15 4.15 0 011.393.258 2.484 2.484 0 011.424 1.424c.165.446.252.917.258 1.392.036.791.044 1.029.044 3.032s-.008 2.239-.044 3.03a4.151 4.151 0 01-.258 1.392 2.484 2.484 0 01-1.424 1.424 4.151 4.151 0 01-1.392.258c-.791.036-1.028.044-3.031.044-2.002 0-2.24-.008-3.03-.044a4.151 4.151 0 01-1.393-.258 2.484 2.484 0 01-1.424-1.424 4.15 4.15 0 01-.258-1.392c-.036-.791-.044-1.028-.044-3.031 0-2.002.008-2.24.044-3.03a4.15 4.15 0 01.258-1.393 2.484 2.484 0 011.424-1.424 4.15 4.15 0 011.392-.258c.791-.036 1.029-.044 3.031-.044zM15 7.5c-2.037 0-2.293.009-3.092.045a5.504 5.504 0 00-1.82.349 3.835 3.835 0 00-2.194 2.194 5.504 5.504 0 00-.349 1.82c-.036.8-.045 1.055-.045 3.092 0 2.038.009 2.293.045 3.093a5.5 5.5 0 00.349 1.82 3.835 3.835 0 002.194 2.193 5.506 5.506 0 001.82.349c.8.036 1.055.045 3.092.045s2.293-.009 3.093-.045a5.506 5.506 0 001.82-.349 3.834 3.834 0 002.194-2.194 5.505 5.505 0 00.348-1.82c.036-.8.045-1.054.045-3.092 0-2.037-.009-2.293-.045-3.092a5.507 5.507 0 00-.349-1.82 3.835 3.835 0 00-2.194-2.194 5.504 5.504 0 00-1.82-.348c-.8-.038-1.054-.046-3.092-.046z" fill="#120D31"/></svg>