<svg width="40" height="41" fill="none" xmlns="http://www.w3.org/2000/svg"><g clip-path="url(#clip0)"><path d="M39 20.895c0 10.472-8.505 18.965-19 18.965S1 31.367 1 20.895C1 10.422 9.505 1.93 20 1.93s19 8.492 19 18.965z" stroke="#fff" stroke-width="2"/><path d="M25.338 16.764a1.199 1.199 0 10.003-2.398 1.199 1.199 0 00-.003 2.398zM20 15.769a5.141 5.141 0 00-4.744 3.164 5.117 5.117 0 001.113 5.587 5.138 5.138 0 005.596 1.11 5.12 5.12 0 001.666-8.36A5.14 5.14 0 0020 15.77zm0 8.453a3.338 3.338 0 01-3.08-2.054 3.322 3.322 0 01.723-3.626 3.335 3.335 0 015.69 2.353c0 .882-.35 1.729-.976 2.353a3.336 3.336 0 01-2.357.974z" fill="#fff"/><path d="M20 12.71c2.67 0 2.987.01 4.04.06a5.544 5.544 0 011.858.343 3.313 3.313 0 011.898 1.895c.22.593.337 1.22.344 1.853.048 1.052.058 1.369.058 4.035 0 2.666-.01 2.98-.058 4.033a5.514 5.514 0 01-.344 1.853 3.307 3.307 0 01-1.898 1.895 5.544 5.544 0 01-1.857.344c-1.054.048-1.371.058-4.041.058-2.67 0-2.987-.01-4.04-.058a5.544 5.544 0 01-1.858-.344 3.313 3.313 0 01-1.898-1.895 5.514 5.514 0 01-.344-1.853c-.048-1.053-.058-1.369-.058-4.034s.01-2.982.058-4.034c.008-.633.124-1.26.344-1.853a3.307 3.307 0 011.898-1.895 5.544 5.544 0 011.857-.344c1.054-.048 1.371-.058 4.041-.058zm0-1.798c-2.716 0-3.057.012-4.123.06a7.35 7.35 0 00-2.427.465 5.115 5.115 0 00-2.925 2.92 7.316 7.316 0 00-.465 2.423c-.048 1.064-.06 1.403-.06 4.115s.012 3.051.06 4.116c.017.828.174 1.647.465 2.422a5.103 5.103 0 002.925 2.92 7.35 7.35 0 002.428.464c1.066.049 1.406.06 4.122.06s3.057-.011 4.123-.06a7.35 7.35 0 002.428-.464 5.115 5.115 0 002.925-2.92c.29-.775.448-1.595.464-2.423.048-1.065.06-1.403.06-4.115s-.012-3.051-.06-4.116a7.314 7.314 0 00-.465-2.423 5.103 5.103 0 00-2.925-2.92 7.352 7.352 0 00-2.428-.463c-1.066-.05-1.405-.06-4.122-.06z" fill="#fff"/></g><defs><clipPath id="clip0"><path fill="#fff" transform="translate(0 .93)" d="M0 0h40v39.93H0z"/></clipPath></defs></svg>