<svg width="40" height="41" fill="none" xmlns="http://www.w3.org/2000/svg"><path d="M12.85 24.23a3.826 3.826 0 002.593-1.023l6.886 3.935a3.832 3.832 0 00-.129.938 3.854 3.854 0 003.85 3.85 3.854 3.854 0 003.85-3.85 3.854 3.854 0 00-3.85-3.85 3.826 3.826 0 00-2.593 1.023l-6.886-3.935c.07-.271.114-.552.12-.845l6.765-3.866a3.83 3.83 0 002.594 1.023 3.854 3.854 0 003.85-3.85 3.854 3.854 0 00-3.85-3.85 3.854 3.854 0 00-3.85 3.85c0 .325.053.636.129.938l-6.253 3.574a3.847 3.847 0 00-3.226-1.762A3.854 3.854 0 009 20.38a3.854 3.854 0 003.85 3.85zm13.2 2.2c.91 0 1.65.74 1.65 1.65 0 .91-.74 1.65-1.65 1.65-.91 0-1.65-.74-1.65-1.65 0-.91.74-1.65 1.65-1.65zm0-14.3c.91 0 1.65.74 1.65 1.65 0 .91-.74 1.65-1.65 1.65-.91 0-1.65-.74-1.65-1.65 0-.91.74-1.65 1.65-1.65zm-13.2 6.6c.91 0 1.65.74 1.65 1.65 0 .91-.74 1.65-1.65 1.65-.91 0-1.65-.74-1.65-1.65 0-.91.74-1.65 1.65-1.65z" fill="#fff"/><circle cx="20" cy="20.93" r="19" stroke="#fff" stroke-width="2"/></svg>