<svg width="18" height="14" fill="none" xmlns="http://www.w3.org/2000/svg"><path d="M6.734 7.11c0 .587.23 1.15.641 1.564.41.415.967.648 1.547.648s1.136-.233 1.547-.648c.41-.414.64-.977.64-1.563 0-.587-.23-1.15-.64-1.564a2.176 2.176 0 00-1.547-.648c-.58 0-1.137.233-1.547.648-.41.415-.64.977-.64 1.564zm10.668-.509C15.551 2.658 12.752.674 9 .674c-3.754 0-6.55 1.984-8.402 5.93a1.201 1.201 0 000 1.016c1.851 3.943 4.65 5.927 8.402 5.927 3.754 0 6.55-1.984 8.402-5.929.15-.32.15-.691 0-1.017zm-8.48 3.984c-1.899 0-3.438-1.555-3.438-3.474 0-1.92 1.54-3.475 3.438-3.475 1.898 0 3.437 1.555 3.437 3.475 0 1.919-1.539 3.474-3.437 3.474z" fill="#fff" fill-opacity=".7"/></svg>