<svg width="188" height="69" fill="none" xmlns="http://www.w3.org/2000/svg"><path d="M95.829 3.014v2.838H85.97v8.555h8.285v2.838H85.97v11.207h11.531v2.838H77.987V3.014H95.83zm24.031 0l-7.984 28.276h-7.157L97.422 3.014h8.064l5.443 21.42 5.947-21.42h2.984zm19.918 0v2.838h-9.859v8.555h8.286v2.838h-8.286v11.207h11.532v2.838h-19.515V3.014h17.842zm24.312 0V31.29h-6.108l-11.491-17.898V31.29h-2.682V3.014h5.061l12.539 19.327V3.014h2.681zm23.91 0v2.838h-6.754V31.29h-8.467V5.852h-6.794V3.014H188zM85.162 69h-6.648V41.424h6.648c2.146 0 3.77.524 4.871 1.57 1.129 1.047 1.693 2.503 1.693 4.37V63.06c0 1.895-.55 3.365-1.651 4.412C88.974 68.49 87.336 69 85.162 69zm3.674-5.94V47.365c0-.905-.33-1.697-.99-2.376-.634-.679-1.528-1.018-2.684-1.018h-3.758v22.485h3.758c1.156 0 2.05-.326 2.683-.976.66-.679.991-1.485.991-2.418zm14.116-21.636h4.335L113.356 69h-2.89l-1.404-6.364h-7.886L99.772 69h-2.89l6.07-27.576zm2.147 3.31l-3.386 15.357h6.771l-3.385-15.358zM124.069 69h-2.89v-9.885l-6.812-17.69h3.055l5.202 14.212 5.202-14.213h3.056l-6.813 17.734V69z" fill="#fff" fill-opacity=".7"/><mask id="a" maskUnits="userSpaceOnUse" x="77" y="3" width="111" height="67"><path d="M95.829 3.014v2.838H85.97v8.555h8.285v2.838H85.97v11.207h11.531v2.838H77.987V3.014H95.83zm24.031 0l-7.984 28.276h-7.157L97.422 3.014h8.064l5.443 21.42 5.947-21.42h2.984zm19.918 0v2.838h-9.859v8.555h8.286v2.838h-8.286v11.207h11.532v2.838h-19.515V3.014h17.842zm24.312 0V31.29h-6.108l-11.491-17.898V31.29h-2.682V3.014h5.061l12.539 19.327V3.014h2.681zm23.91 0v2.838h-6.754V31.29h-8.467V5.852h-6.794V3.014H188zM85.162 69h-6.648V41.424h6.648c2.146 0 3.77.524 4.871 1.57 1.129 1.047 1.693 2.503 1.693 4.37V63.06c0 1.895-.55 3.365-1.651 4.412C88.974 68.49 87.336 69 85.162 69zm3.674-5.94V47.365c0-.905-.33-1.697-.99-2.376-.634-.679-1.528-1.018-2.684-1.018h-3.758v22.485h3.758c1.156 0 2.05-.326 2.683-.976.66-.679.991-1.485.991-2.418zm14.116-21.636h4.335L113.356 69h-2.89l-1.404-6.364h-7.886L99.772 69h-2.89l6.07-27.576zm2.147 3.31l-3.386 15.357h6.771l-3.385-15.358zM124.069 69h-2.89v-9.885l-6.812-17.69h3.055l5.202 14.212 5.202-14.213h3.056l-6.813 17.734V69z" fill="#120D31"/></mask><g mask="url(#a)"><path fill="#C4C4C4" style="mix-blend-mode:soft-light" d="M75.694-13.484h114.687v30.64H75.694z"/></g><path d="M52.211 0c-2.539 0-5.01.84-7.045 2.394a12.081 12.081 0 00-4.254 6.231H5.307c-4.641 0-7.038 5.578-3.857 8.978l4.76 5.403L25.264 44.66v20.89h-8.42c-.447 0-.876.182-1.191.505a1.746 1.746 0 00-.494 1.22c0 .457.178.896.494 1.22.315.323.744.505 1.19.505h20.211c.447 0 .875-.182 1.191-.505.316-.324.493-.763.493-1.22 0-.458-.177-.896-.493-1.22a1.664 1.664 0 00-1.19-.505h-8.422V44.661L47.55 23.166a11.545 11.545 0 0010.111-.384c1.552-.828 2.904-2 3.959-3.43a12.215 12.215 0 002.138-4.84 12.36 12.36 0 00-.096-5.31 12.191 12.191 0 00-2.311-4.755 11.837 11.837 0 00-4.08-3.278A11.558 11.558 0 0052.211 0zM3.921 15.254l-.035-.038a1.742 1.742 0 01-.488-.924 1.767 1.767 0 01.125-1.043c.144-.359.393-.664.712-.874.319-.21.693-.314 1.072-.3h43.282c.38-.015.754.09 1.074.3.32.209.569.514.714.874.146.326.19.69.125 1.043a1.742 1.742 0 01-.488.924l-.036.038-.034.04-6.276 7.131H10.229l-6.276-7.132-.032-.039zm23.027 26.168L13.265 25.875h27.368L26.948 41.422zM52.21 20.7a8.19 8.19 0 01-2.22-.306l2.454-2.79c3.182-3.4.79-8.978-3.856-8.978H44.5a8.588 8.588 0 012.813-3.561 8.25 8.25 0 018.594-.741 8.488 8.488 0 013.356 3.029 8.77 8.77 0 011.368 4.361 8.796 8.796 0 01-1.006 4.464 8.538 8.538 0 01-3.096 3.307 8.27 8.27 0 01-4.312 1.216l-.007-.001z" fill="#fff" fill-opacity=".7"/></svg>