<svg width="82" height="30" fill="none" xmlns="http://www.w3.org/2000/svg"><path d="M41.778 2v1.204h-4.297v3.63h3.612v1.204H37.48v4.755h5.028v1.204H34V2h7.778zm10.477 0l-3.48 11.997h-3.12L42.472 2h3.515l2.373 9.088L50.954 2h1.3zm8.683 0v1.204h-4.297v3.63h3.612v1.204H56.64v4.755h5.027v1.204H53.16V2h7.779zm10.6 0v11.997h-2.663l-5.01-7.594v7.594h-1.169V2h2.206l5.467 8.2V2h1.17zm10.424 0v1.204h-2.944v10.793h-3.692V3.204h-2.962V2h9.598zM37.128 29.997H34.23v-11.7h2.898c.936 0 1.644.222 2.124.666.492.444.738 1.062.738 1.854v6.66c0 .804-.24 1.428-.72 1.872-.48.432-1.194.648-2.142.648zm1.602-2.52v-6.66c0-.384-.144-.72-.432-1.008-.276-.288-.666-.432-1.17-.432H35.49v9.54h1.638c.504 0 .894-.138 1.17-.414.288-.288.432-.63.432-1.026zm6.154-9.18h1.89l2.646 11.7h-1.26l-.612-2.7H44.11l-.612 2.7h-1.26l2.646-11.7zm.936 1.404l-1.476 6.516h2.952l-1.476-6.516zm8.27 10.296h-1.26v-4.194l-2.97-7.506h1.332l2.268 6.03 2.268-6.03h1.332l-2.97 7.524v4.176z" fill="#120D31"/><mask id="a" maskUnits="userSpaceOnUse" x="34" y="2" width="48" height="28"><path d="M41.778 2v1.204h-4.297v3.63h3.612v1.204H37.48v4.755h5.028v1.204H34V2h7.778zm10.477 0l-3.48 11.997h-3.12L42.472 2h3.515l2.373 9.088L50.954 2h1.3zm8.683 0v1.204h-4.297v3.63h3.612v1.204H56.64v4.755h5.027v1.204H53.16V2h7.779zm10.6 0v11.997h-2.663l-5.01-7.594v7.594h-1.169V2h2.206l5.467 8.2V2h1.17zm10.424 0v1.204h-2.944v10.793h-3.692V3.204h-2.962V2h9.598zM37.128 29.997H34.23v-11.7h2.898c.936 0 1.644.222 2.124.666.492.444.738 1.062.738 1.854v6.66c0 .804-.24 1.428-.72 1.872-.48.432-1.194.648-2.142.648zm1.602-2.52v-6.66c0-.384-.144-.72-.432-1.008-.276-.288-.666-.432-1.17-.432H35.49v9.54h1.638c.504 0 .894-.138 1.17-.414.288-.288.432-.63.432-1.026zm6.154-9.18h1.89l2.646 11.7h-1.26l-.612-2.7H44.11l-.612 2.7h-1.26l2.646-11.7zm.936 1.404l-1.476 6.516h2.952l-1.476-6.516zm8.27 10.296h-1.26v-4.194l-2.97-7.506h1.332l2.268 6.03 2.268-6.03h1.332l-2.97 7.524v4.176z" fill="#120D31"/></mask><g mask="url(#a)"><path fill="#C4C4C4" style="mix-blend-mode:soft-light" d="M33-5h50V8H33z"/></g><path d="M22.842.655a5.33 5.33 0 00-3.082.974 4.922 4.922 0 00-1.86 2.536H2.321c-2.03 0-3.08 2.27-1.688 3.653l2.083 2.199 8.336 8.812v8.5H7.369a.756.756 0 00-.521.206.685.685 0 00-.216.496c0 .186.077.365.216.497a.756.756 0 00.52.205h8.843a.756.756 0 00.52-.206.686.686 0 00.217-.496.685.685 0 00-.216-.496.756.756 0 00-.521-.206h-3.684v-8.5l8.276-8.747a5.385 5.385 0 004.423-.156 5.102 5.102 0 001.732-1.396 4.806 4.806 0 00.936-1.97 4.688 4.688 0 00-.042-2.16 4.828 4.828 0 00-1.011-1.935 5.13 5.13 0 00-1.785-1.335 5.372 5.372 0 00-2.214-.475zM1.716 6.862L1.7 6.847a.694.694 0 01-.214-.376.673.673 0 01.055-.425.784.784 0 01.312-.355.843.843 0 01.469-.123h18.936a.843.843 0 01.47.122.79.79 0 01.312.356.673.673 0 01.055.425.694.694 0 01-.214.376l-.015.015-.015.016-2.746 2.902H4.475L1.73 6.878l-.013-.016zM11.79 17.511l-5.987-6.327h11.974l-5.987 6.327zm11.052-8.433c-.328 0-.655-.041-.971-.124l1.074-1.135c1.392-1.384.345-3.654-1.687-3.654h-1.789c.266-.58.691-1.08 1.231-1.45a3.844 3.844 0 013.76-.302 3.634 3.634 0 011.468 1.234c.364.53.57 1.143.599 1.775a3.375 3.375 0 01-.44 1.816 3.591 3.591 0 01-1.355 1.346 3.824 3.824 0 01-1.887.495h-.003z" fill="#120D31"/></svg>